<?xml version="1.0" encoding="UTF-8"?>
<svg xmlns="http://www.w3.org/2000/svg" xmlns:xlink="http://www.w3.org/1999/xlink" width="px" height="px" viewBox="0 0 280 79" version="1.1">
<g id="surface1">
<path style=" stroke:none;fill-rule:nonzero;fill:rgb(100%,100%,100%);fill-opacity:1;" d="M 39.417969 0.0429688 C 17.648438 0.0429688 0 17.707031 0 39.5 C 0 61.289062 17.648438 78.957031 39.417969 78.957031 C 61.1875 78.957031 78.835938 61.292969 78.835938 39.5 C 78.835938 17.707031 61.191406 0.046875 39.417969 0.046875 Z M 27.253906 18.714844 C 28.203125 17.734375 29.757812 17.714844 30.730469 18.660156 C 38.511719 26.226562 49.59375 30.046875 63.667969 30.019531 C 65.023438 30.015625 66.125 31.113281 66.128906 32.472656 C 66.132812 33.828125 65.035156 34.933594 63.675781 34.933594 C 48.273438 34.972656 36.039062 30.683594 27.304688 22.191406 C 26.332031 21.242188 26.308594 19.6875 27.257812 18.714844 Z M 20.183594 28.125 C 21.371094 26.910156 23.316406 26.882812 24.53125 28.070312 C 33.425781 36.765625 48.765625 42.175781 61.828125 41.230469 C 63.519531 41.109375 64.992188 42.382812 65.117188 44.074219 C 65.234375 45.769531 63.964844 47.242188 62.273438 47.363281 C 47.351562 48.445312 30.457031 42.460938 20.238281 32.472656 C 19.023438 31.285156 18.996094 29.335938 20.183594 28.125 Z M 17.3125 38.945312 C 28.042969 49.117188 48.332031 54.421875 60.972656 53.507812 C 63.003906 53.359375 64.769531 54.890625 64.917969 56.921875 C 65.0625 58.953125 63.535156 60.722656 61.503906 60.871094 C 46.992188 61.921875 24.59375 56.011719 12.242188 44.304688 C 10.765625 42.902344 10.703125 40.566406 12.101562 39.089844 C 13.5 37.605469 15.839844 37.542969 17.3125 38.945312 Z M 17.3125 38.945312 "/>
<path style=" stroke:none;fill-rule:nonzero;fill:rgb(100%,100%,100%);fill-opacity:1;" d="M 117.394531 36.296875 C 116.675781 37.804688 115.683594 39.0625 114.425781 40.078125 C 113.164062 41.09375 111.691406 41.855469 110.007812 42.363281 C 108.324219 42.871094 106.515625 43.125 104.585938 43.125 L 98.84375 43.125 L 98.84375 53.441406 L 91.285156 53.441406 L 91.285156 19.050781 L 105.320312 19.050781 C 107.382812 19.050781 109.222656 19.339844 110.84375 19.910156 C 112.464844 20.484375 113.835938 21.296875 114.964844 22.34375 C 116.09375 23.390625 116.960938 24.644531 117.566406 26.101562 C 118.171875 27.558594 118.476562 29.171875 118.476562 30.941406 L 118.476562 31.039062 C 118.476562 33.039062 118.113281 34.789062 117.394531 36.296875 Z M 110.816406 31.089844 C 110.816406 29.386719 110.269531 28.089844 109.175781 27.207031 C 108.078125 26.324219 106.582031 25.882812 104.683594 25.882812 L 98.84375 25.882812 L 98.84375 36.394531 L 104.828125 36.394531 C 106.726562 36.394531 108.199219 35.894531 109.246094 34.894531 C 110.292969 33.898438 110.816406 32.660156 110.816406 31.1875 Z M 110.816406 31.089844 "/>
<path style=" stroke:none;fill-rule:nonzero;fill:rgb(100%,100%,100%);fill-opacity:1;" d="M 136.242188 53.441406 L 136.242188 50.59375 C 135.328125 51.609375 134.230469 52.417969 132.953125 53.023438 C 131.679688 53.628906 130.125 53.933594 128.292969 53.933594 C 127.046875 53.933594 125.878906 53.761719 124.78125 53.417969 C 123.683594 53.074219 122.726562 52.558594 121.910156 51.871094 C 121.09375 51.183594 120.445312 50.339844 119.972656 49.339844 C 119.496094 48.34375 119.257812 47.1875 119.257812 45.878906 L 119.257812 45.777344 C 119.257812 44.339844 119.523438 43.09375 120.046875 42.046875 C 120.566406 40.996094 121.296875 40.128906 122.230469 39.441406 C 123.164062 38.753906 124.273438 38.238281 125.566406 37.894531 C 126.859375 37.550781 128.292969 37.378906 129.863281 37.378906 C 131.203125 37.378906 132.371094 37.476562 133.371094 37.671875 C 134.367188 37.871094 135.34375 38.132812 136.292969 38.460938 L 136.292969 38.015625 C 136.292969 36.445312 135.816406 35.25 134.867188 34.429688 C 133.917969 33.613281 132.511719 33.203125 130.648438 33.203125 C 129.207031 33.203125 127.941406 33.324219 126.84375 33.570312 C 125.746094 33.816406 124.59375 34.167969 123.382812 34.628906 L 121.519531 28.929688 C 122.957031 28.308594 124.464844 27.800781 126.035156 27.40625 C 127.605469 27.011719 129.5 26.816406 131.726562 26.816406 C 135.816406 26.816406 138.792969 27.816406 140.660156 29.8125 C 142.523438 31.8125 143.457031 34.59375 143.457031 38.164062 L 143.457031 53.445312 L 136.242188 53.445312 Z M 136.390625 42.832031 C 135.734375 42.535156 135.007812 42.300781 134.207031 42.117188 C 133.402344 41.9375 132.542969 41.847656 131.628906 41.847656 C 130.023438 41.847656 128.765625 42.160156 127.847656 42.78125 C 126.933594 43.402344 126.476562 44.304688 126.476562 45.484375 L 126.476562 45.582031 C 126.476562 46.597656 126.851562 47.382812 127.605469 47.941406 C 128.355469 48.496094 129.339844 48.773438 130.550781 48.773438 C 132.316406 48.773438 133.730469 48.351562 134.792969 47.496094 C 135.859375 46.648438 136.390625 45.53125 136.390625 44.15625 Z M 136.390625 42.832031 "/>
<path style=" stroke:none;fill-rule:nonzero;fill:rgb(100%,100%,100%);fill-opacity:1;" d="M 162.894531 34.429688 C 160.40625 34.429688 158.453125 35.183594 157.027344 36.691406 C 155.605469 38.195312 154.894531 40.539062 154.894531 43.714844 L 154.894531 53.441406 L 147.433594 53.441406 L 147.433594 27.109375 L 154.894531 27.109375 L 154.894531 32.414062 C 155.644531 30.613281 156.675781 29.171875 157.984375 28.089844 C 159.292969 27.011719 161.058594 26.519531 163.285156 26.617188 L 163.285156 34.429688 Z M 162.894531 34.429688 "/>
<path style=" stroke:none;fill-rule:nonzero;fill:rgb(100%,100%,100%);fill-opacity:1;" d="M 191.605469 45.65625 C 190.886719 47.308594 189.886719 48.757812 188.613281 50.003906 C 187.335938 51.25 185.832031 52.230469 184.097656 52.953125 C 182.363281 53.671875 180.464844 54.03125 178.402344 54.03125 C 176.375 54.03125 174.492188 53.679688 172.757812 52.976562 C 171.023438 52.273438 169.527344 51.304688 168.269531 50.078125 C 167.007812 48.847656 166.015625 47.40625 165.296875 45.753906 C 164.578125 44.101562 164.21875 42.324219 164.21875 40.421875 L 164.21875 40.324219 C 164.21875 38.425781 164.578125 36.648438 165.296875 34.996094 C 166.019531 33.339844 167.015625 31.890625 168.292969 30.644531 C 169.566406 29.402344 171.074219 28.417969 172.808594 27.699219 C 174.542969 26.976562 176.441406 26.617188 178.5 26.617188 C 180.53125 26.617188 182.410156 26.96875 184.144531 27.675781 C 185.878906 28.378906 187.375 29.34375 188.636719 30.574219 C 189.894531 31.800781 190.886719 33.242188 191.605469 34.894531 C 192.324219 36.550781 192.6875 38.328125 192.6875 40.226562 L 192.6875 40.324219 C 192.6875 42.226562 192.324219 44.003906 191.605469 45.65625 Z M 185.324219 40.324219 C 185.324219 39.34375 185.160156 38.417969 184.832031 37.550781 C 184.503906 36.679688 184.03125 35.910156 183.410156 35.238281 C 182.789062 34.570312 182.050781 34.035156 181.199219 33.644531 C 180.347656 33.25 179.417969 33.054688 178.402344 33.054688 C 177.324219 33.054688 176.367188 33.242188 175.53125 33.617188 C 174.695312 33.996094 173.984375 34.511719 173.394531 35.167969 C 172.808594 35.820312 172.355469 36.582031 172.046875 37.449219 C 171.734375 38.320312 171.578125 39.246094 171.578125 40.226562 L 171.578125 40.324219 C 171.578125 41.308594 171.742188 42.234375 172.070312 43.101562 C 172.398438 43.96875 172.871094 44.738281 173.496094 45.410156 C 174.113281 46.082031 174.84375 46.613281 175.679688 47.007812 C 176.511719 47.398438 177.453125 47.597656 178.5 47.597656 C 179.582031 47.597656 180.539062 47.40625 181.371094 47.03125 C 182.207031 46.65625 182.917969 46.140625 183.507812 45.484375 C 184.097656 44.828125 184.542969 44.066406 184.855469 43.199219 C 185.167969 42.332031 185.324219 41.40625 185.324219 40.421875 Z M 185.324219 40.324219 "/>
<path style=" stroke:none;fill-rule:nonzero;fill:rgb(100%,100%,100%);fill-opacity:1;" d="M 214.625 53.441406 L 214.625 49.691406 C 213.707031 50.929688 212.605469 51.945312 211.3125 52.738281 C 210.019531 53.535156 208.390625 53.933594 206.429688 53.933594 C 204.890625 53.933594 203.402344 53.640625 201.960938 53.050781 C 200.523438 52.460938 199.246094 51.585938 198.132812 50.421875 C 197.019531 49.257812 196.128906 47.835938 195.457031 46.148438 C 194.789062 44.460938 194.453125 42.519531 194.453125 40.324219 L 194.453125 40.226562 C 194.453125 38.03125 194.789062 36.09375 195.457031 34.40625 C 196.128906 32.71875 197.011719 31.292969 198.109375 30.128906 C 199.207031 28.96875 200.472656 28.089844 201.914062 27.503906 C 203.351562 26.914062 204.859375 26.617188 206.429688 26.617188 C 208.425781 26.617188 210.070312 27.007812 211.363281 27.789062 C 212.652344 28.566406 213.742188 29.476562 214.625 30.515625 L 214.625 17.578125 L 222.085938 17.578125 L 222.085938 53.441406 Z M 214.722656 40.226562 C 214.722656 39.136719 214.550781 38.140625 214.207031 37.234375 C 213.863281 36.328125 213.40625 35.554688 212.832031 34.910156 C 212.261719 34.265625 211.589844 33.773438 210.820312 33.425781 C 210.050781 33.082031 209.226562 32.90625 208.34375 32.90625 C 207.460938 32.90625 206.632812 33.082031 205.863281 33.425781 C 205.09375 33.773438 204.417969 34.265625 203.828125 34.910156 C 203.238281 35.554688 202.769531 36.320312 202.429688 37.210938 C 202.085938 38.101562 201.914062 39.105469 201.914062 40.226562 L 201.914062 40.324219 C 201.914062 41.414062 202.085938 42.410156 202.429688 43.316406 C 202.773438 44.226562 203.238281 45 203.828125 45.640625 C 204.417969 46.285156 205.09375 46.78125 205.863281 47.125 C 206.632812 47.472656 207.457031 47.644531 208.34375 47.644531 C 209.226562 47.644531 210.050781 47.472656 210.820312 47.125 C 211.589844 46.78125 212.261719 46.285156 212.832031 45.640625 C 213.40625 45 213.863281 44.226562 214.207031 43.316406 C 214.550781 42.410156 214.722656 41.414062 214.722656 40.324219 Z M 214.722656 40.226562 "/>
<path style=" stroke:none;fill-rule:nonzero;fill:rgb(100%,100%,100%);fill-opacity:1;" d="M 226.453125 24.210938 L 226.453125 17.578125 L 234.304688 17.578125 L 234.304688 24.210938 Z M 226.648438 53.441406 L 226.648438 27.109375 L 234.109375 27.109375 L 234.109375 53.441406 Z M 226.648438 53.441406 "/>
<path style=" stroke:none;fill-rule:nonzero;fill:rgb(100%,100%,100%);fill-opacity:1;" d="M 251.777344 23.695312 C 251.253906 23.582031 250.664062 23.523438 250.011719 23.523438 C 248.210938 23.523438 247.3125 24.472656 247.3125 26.371094 L 247.3125 27.40625 L 253.347656 27.40625 L 253.347656 33.496094 L 247.410156 33.496094 L 247.410156 53.441406 L 239.949219 53.441406 L 239.949219 33.496094 L 236.859375 33.496094 L 236.859375 27.355469 L 239.949219 27.355469 L 239.949219 25.683594 C 239.949219 22.769531 240.644531 20.632812 242.035156 19.273438 C 243.425781 17.914062 245.445312 17.234375 248.097656 17.234375 C 249.277344 17.234375 250.28125 17.300781 251.117188 17.433594 C 251.949219 17.5625 252.710938 17.742188 253.398438 17.972656 L 253.398438 24.164062 C 252.839844 23.964844 252.300781 23.8125 251.777344 23.695312 Z M 251.777344 23.695312 "/>
<path style=" stroke:none;fill-rule:nonzero;fill:rgb(100%,100%,100%);fill-opacity:1;" d="M 269.890625 54.082031 C 269.398438 55.425781 268.875 56.5625 268.316406 57.496094 C 267.761719 58.429688 267.148438 59.191406 266.476562 59.78125 C 265.808594 60.371094 265.046875 60.796875 264.195312 61.058594 C 263.34375 61.320312 262.363281 61.449219 261.25 61.449219 C 259.875 61.449219 258.664062 61.285156 257.617188 60.960938 C 256.570312 60.632812 255.574219 60.1875 254.625 59.632812 L 257.128906 54.226562 C 257.617188 54.523438 258.148438 54.769531 258.722656 54.964844 C 259.296875 55.164062 259.828125 55.261719 260.316406 55.261719 C 260.972656 55.261719 261.488281 55.136719 261.863281 54.890625 C 262.238281 54.648438 262.59375 54.195312 262.917969 53.539062 L 252.613281 27.109375 L 260.515625 27.109375 L 266.503906 45.042969 L 272.246094 27.109375 L 280 27.109375 Z M 269.890625 54.082031 "/>
<path style=" stroke:none;fill-rule:nonzero;fill:rgb(86.666667%,86.666667%,86.666667%);fill-opacity:1;" d="M 189.101562 57.933594 L 190.445312 57.933594 L 190.445312 62.835938 L 190.476562 62.851562 C 190.941406 62.527344 191.671875 62.199219 192.554688 62.199219 C 194.542969 62.199219 196.140625 63.847656 196.140625 66.285156 C 196.140625 68.765625 194.496094 70.597656 192.242188 70.597656 C 191.554688 70.597656 190.957031 70.417969 190.402344 70.171875 L 189.101562 70.417969 Z M 192.285156 69.304688 C 193.78125 69.304688 194.78125 68.046875 194.78125 66.363281 C 194.78125 64.746094 193.839844 63.523438 192.390625 63.523438 C 191.597656 63.523438 190.941406 63.832031 190.445312 64.273438 L 190.445312 68.78125 C 190.925781 69.09375 191.671875 69.304688 192.285156 69.304688 Z M 192.285156 69.304688 "/>
<path style=" stroke:none;fill-rule:nonzero;fill:rgb(86.666667%,86.666667%,86.666667%);fill-opacity:1;" d="M 197.726562 74.011719 L 199.714844 69.550781 L 196.648438 62.378906 L 198.144531 62.378906 L 199.429688 65.417969 C 199.773438 66.234375 200.132812 67.101562 200.429688 67.835938 L 200.460938 67.835938 C 200.789062 67.035156 201.117188 66.234375 201.460938 65.417969 L 202.746094 62.378906 L 204.167969 62.378906 L 199.191406 74.011719 Z M 197.726562 74.011719 "/>
<path style=" stroke:none;fill-rule:nonzero;fill:rgb(86.666667%,86.666667%,86.666667%);fill-opacity:1;" d="M 209.367188 58.589844 L 212.195312 58.589844 C 213.34375 58.589844 214.449219 58.636719 215.390625 59.210938 C 216.332031 59.78125 216.960938 60.746094 216.960938 62.132812 C 216.960938 63.472656 216.363281 64.503906 215.496094 65.074219 C 214.554688 65.695312 213.300781 65.742188 211.910156 65.742188 L 210.789062 65.742188 L 210.789062 70.417969 L 209.367188 70.417969 Z M 212.089844 64.386719 C 213.359375 64.386719 214.078125 64.339844 214.675781 63.945312 C 215.210938 63.585938 215.542969 63 215.542969 62.199219 C 215.542969 61.316406 215.152344 60.710938 214.539062 60.371094 C 213.882812 60.011719 213.089844 59.992188 212.074219 59.992188 L 210.789062 59.992188 L 210.789062 64.390625 L 212.089844 64.390625 Z M 212.089844 64.386719 "/>
<path style=" stroke:none;fill-rule:nonzero;fill:rgb(86.666667%,86.666667%,86.666667%);fill-opacity:1;" d="M 218.648438 70.023438 C 218.171875 69.632812 217.871094 69.027344 217.871094 68.242188 C 217.871094 67.34375 218.261719 66.691406 218.84375 66.285156 C 219.398438 65.890625 220.144531 65.746094 220.90625 65.746094 C 221.476562 65.746094 222 65.824219 222.476562 65.957031 L 222.476562 65.289062 C 222.476562 64.699219 222.34375 64.257812 222.058594 63.964844 C 221.773438 63.6875 221.324219 63.523438 220.699219 63.523438 C 219.773438 63.523438 218.996094 63.882812 218.441406 64.324219 L 218.441406 62.886719 C 219.007812 62.511719 219.800781 62.199219 220.894531 62.199219 C 221.789062 62.199219 222.566406 62.414062 223.089844 62.933594 C 223.523438 63.359375 223.820312 64.046875 223.820312 65.042969 L 223.820312 68.457031 C 223.820312 68.945312 223.988281 69.304688 224.390625 69.304688 C 224.539062 69.304688 224.703125 69.257812 224.824219 69.191406 L 224.824219 70.417969 C 224.644531 70.5 224.390625 70.5625 224.105469 70.5625 C 223.523438 70.5625 222.96875 70.285156 222.6875 69.714844 L 222.65625 69.714844 C 222.238281 70.140625 221.386719 70.597656 220.398438 70.597656 C 219.800781 70.597656 219.144531 70.433594 218.648438 70.027344 Z M 222.476562 68.585938 L 222.476562 67.082031 C 222.074219 66.953125 221.503906 66.871094 221.042969 66.871094 C 220.128906 66.871094 219.234375 67.164062 219.234375 68.113281 C 219.234375 68.898438 219.84375 69.289062 220.636719 69.289062 C 221.339844 69.289062 222.027344 68.980469 222.476562 68.585938 Z M 222.476562 68.585938 "/>
<path style=" stroke:none;fill-rule:nonzero;fill:rgb(86.666667%,86.666667%,86.666667%);fill-opacity:1;" d="M 227.664062 74.011719 L 226.316406 74.011719 L 226.316406 62.378906 L 227.664062 62.378906 L 227.664062 62.902344 L 227.691406 62.917969 C 228.199219 62.527344 228.917969 62.199219 229.785156 62.199219 C 231.757812 62.199219 233.34375 63.882812 233.34375 66.363281 C 233.34375 68.945312 231.625 70.597656 229.5 70.597656 C 228.769531 70.597656 228.15625 70.398438 227.691406 70.15625 L 227.660156 70.171875 L 227.660156 74.011719 Z M 229.53125 69.304688 C 230.996094 69.304688 231.980469 68.128906 231.980469 66.480469 C 231.980469 64.84375 231.027344 63.523438 229.5625 63.523438 C 228.902344 63.523438 228.1875 63.785156 227.664062 64.257812 L 227.664062 68.75 C 228.125 69.027344 228.8125 69.304688 229.53125 69.304688 Z M 229.53125 69.304688 "/>
<path style=" stroke:none;fill-rule:nonzero;fill:rgb(86.666667%,86.666667%,86.666667%);fill-opacity:1;" d="M 235.882812 58.589844 C 236.40625 58.589844 236.824219 59.046875 236.824219 59.617188 C 236.824219 60.1875 236.40625 60.648438 235.882812 60.648438 C 235.359375 60.648438 234.941406 60.1875 234.941406 59.617188 C 234.941406 59.046875 235.359375 58.589844 235.882812 58.589844 Z M 235.210938 62.378906 L 236.554688 62.378906 L 236.554688 70.414062 L 235.210938 70.414062 Z M 235.210938 62.378906 "/>
<path style=" stroke:none;fill-rule:nonzero;fill:rgb(86.666667%,86.666667%,86.666667%);fill-opacity:1;" d="M 239.484375 67.621094 L 239.484375 63.703125 L 238.125 63.703125 L 238.125 62.378906 L 239.484375 62.378906 L 239.484375 60.191406 L 240.828125 59.945312 L 240.828125 62.378906 L 243.042969 62.378906 L 243.042969 63.703125 L 240.828125 63.703125 L 240.828125 67.34375 C 240.828125 68.339844 240.964844 69.257812 241.9375 69.257812 C 242.324219 69.257812 242.757812 69.109375 243.042969 68.914062 L 243.042969 70.300781 C 242.742188 70.464844 242.21875 70.59375 241.710938 70.59375 C 241.171875 70.59375 240.515625 70.449219 240.039062 69.84375 C 239.679688 69.402344 239.484375 68.75 239.484375 67.621094 Z M 239.484375 67.621094 "/>
<path style=" stroke:none;fill-rule:nonzero;fill:rgb(86.666667%,86.666667%,86.666667%);fill-opacity:1;" d="M 247.929688 62.199219 C 250.15625 62.199219 251.816406 64.027344 251.816406 66.398438 C 251.816406 68.765625 250.15625 70.597656 247.929688 70.597656 C 245.703125 70.597656 244.042969 68.765625 244.042969 66.398438 C 244.042969 64.027344 245.703125 62.199219 247.929688 62.199219 Z M 247.929688 69.257812 C 249.394531 69.257812 250.472656 68.015625 250.472656 66.398438 C 250.472656 64.78125 249.394531 63.539062 247.929688 63.539062 C 246.464844 63.539062 245.390625 64.78125 245.390625 66.398438 C 245.390625 68.015625 246.464844 69.257812 247.929688 69.257812 Z M 247.929688 69.257812 "/>
</g>
</svg>
